<svg width="55" height="55" viewBox="0 0 55 55" fill="none" xmlns="http://www.w3.org/2000/svg">
<mask id="mask0_574_165" style="mask-type:alpha" maskUnits="userSpaceOnUse" x="0" y="0" width="55" height="55">
<rect width="55" height="55" fill="#D9D9D9"/>
</mask>
<g mask="url(#mask0_574_165)">
<path d="M25.625 39.375H30.2083V30.2083H39.375V25.625H30.2083V16.4583H25.625V25.625H16.4583V30.2083H25.625V39.375ZM27.9167 50.8333C24.7465 50.8333 21.7674 50.2318 18.9792 49.0286C16.191 47.8255 13.7656 46.1927 11.7031 44.1302C9.64062 42.0677 8.00781 39.6424 6.80469 36.8542C5.60156 34.066 5 31.0868 5 27.9167C5 24.7465 5.60156 21.7674 6.80469 18.9792C8.00781 16.191 9.64062 13.7656 11.7031 11.7031C13.7656 9.64062 16.191 8.00781 18.9792 6.80469C21.7674 5.60156 24.7465 5 27.9167 5C31.0868 5 34.066 5.60156 36.8542 6.80469C39.6424 8.00781 42.0677 9.64062 44.1302 11.7031C46.1927 13.7656 47.8255 16.191 49.0286 18.9792C50.2318 21.7674 50.8333 24.7465 50.8333 27.9167C50.8333 31.0868 50.2318 34.066 49.0286 36.8542C47.8255 39.6424 46.1927 42.0677 44.1302 44.1302C42.0677 46.1927 39.6424 47.8255 36.8542 49.0286C34.066 50.2318 31.0868 50.8333 27.9167 50.8333ZM27.9167 46.25C33.0347 46.25 37.3698 44.474 40.9219 40.9219C44.474 37.3698 46.25 33.0347 46.25 27.9167C46.25 22.7986 44.474 18.4635 40.9219 14.9115C37.3698 11.3594 33.0347 9.58333 27.9167 9.58333C22.7986 9.58333 18.4635 11.3594 14.9115 14.9115C11.3594 18.4635 9.58333 22.7986 9.58333 27.9167C9.58333 33.0347 11.3594 37.3698 14.9115 40.9219C18.4635 44.474 22.7986 46.25 27.9167 46.25Z" fill="#509D46"/>
</g>
</svg>
