<svg width="45" height="50" viewBox="0 0 45 50" fill="none" xmlns="http://www.w3.org/2000/svg">
<path d="M32.5 37.5C33.5417 37.5 34.4271 37.1354 35.1562 36.4062C35.8854 35.6771 36.25 34.7917 36.25 33.75C36.25 32.7083 35.8854 31.8229 35.1562 31.0937C34.4271 30.3646 33.5417 30 32.5 30C31.4583 30 30.5729 30.3646 29.8438 31.0937C29.1146 31.8229 28.75 32.7083 28.75 33.75C28.75 34.7917 29.1146 35.6771 29.8438 36.4062C30.5729 37.1354 31.4583 37.5 32.5 37.5ZM32.5 45C33.7917 45 34.9792 44.6979 36.0625 44.0937C37.1458 43.4896 38.0208 42.6875 38.6875 41.6875C37.7708 41.1458 36.7917 40.7292 35.75 40.4375C34.7083 40.1458 33.625 40 32.5 40C31.375 40 30.2917 40.1458 29.25 40.4375C28.2083 40.7292 27.2292 41.1458 26.3125 41.6875C26.9792 42.6875 27.8542 43.4896 28.9375 44.0937C30.0208 44.6979 31.2083 45 32.5 45ZM20 50C14.2083 48.5417 9.42708 45.2187 5.65625 40.0312C1.88542 34.8438 0 29.0833 0 22.75V7.5L20 0L40 7.5V21.6875C39.2083 21.3542 38.3958 21.0521 37.5625 20.7812C36.7292 20.5104 35.875 20.3125 35 20.1875V11L20 5.375L5 11V22.75C5 24.7083 5.26042 26.6667 5.78125 28.625C6.30208 30.5833 7.03125 32.4479 7.96875 34.2187C8.90625 35.9896 10.0417 37.625 11.375 39.125C12.7083 40.625 14.1875 41.875 15.8125 42.875C16.2708 44.2083 16.875 45.4792 17.625 46.6875C18.375 47.8958 19.2292 48.9792 20.1875 49.9375C20.1458 49.9375 20.1146 49.9479 20.0938 49.9688C20.0729 49.9896 20.0417 50 20 50ZM32.5 50C29.0417 50 26.0938 48.7812 23.6563 46.3437C21.2188 43.9062 20 40.9583 20 37.5C20 34.0417 21.2188 31.0937 23.6563 28.6562C26.0938 26.2187 29.0417 25 32.5 25C35.9583 25 38.9062 26.2187 41.3438 28.6562C43.7812 31.0937 45 34.0417 45 37.5C45 40.9583 43.7812 43.9062 41.3438 46.3437C38.9062 48.7812 35.9583 50 32.5 50Z" fill="#FFC700"/>
</svg>
