<svg width="96" height="84" viewBox="0 0 96 84" fill="none" xmlns="http://www.w3.org/2000/svg">
<path d="M5.48967 83.25C4.64939 83.25 3.88551 83.0399 3.19801 82.6198C2.51051 82.1997 1.97579 81.6458 1.59384 80.9583C1.2119 80.2708 1.00183 79.526 0.963636 78.724C0.925441 77.9219 1.13551 77.1389 1.59384 76.375L43.9896 3.04167C44.448 2.27778 45.04 1.70486 45.7657 1.32292C46.4914 0.940972 47.2361 0.75 48 0.75C48.7639 0.75 49.5087 0.940972 50.2344 1.32292C50.9601 1.70486 51.5521 2.27778 52.0104 3.04167L94.4062 76.375C94.8645 77.1389 95.0746 77.9219 95.0364 78.724C94.9982 79.526 94.7882 80.2708 94.4062 80.9583C94.0243 81.6458 93.4896 82.1997 92.8021 82.6198C92.1146 83.0399 91.3507 83.25 90.5104 83.25H5.48967ZM13.3959 74.0833H82.6041L48 14.5L13.3959 74.0833ZM48 69.5C49.2986 69.5 50.3872 69.0608 51.2657 68.1823C52.1441 67.3038 52.5834 66.2153 52.5834 64.9167C52.5834 63.6181 52.1441 62.5295 51.2657 61.651C50.3872 60.7726 49.2986 60.3333 48 60.3333C46.7014 60.3333 45.6129 60.7726 44.7344 61.651C43.8559 62.5295 43.4167 63.6181 43.4167 64.9167C43.4167 66.2153 43.8559 67.3038 44.7344 68.1823C45.6129 69.0608 46.7014 69.5 48 69.5ZM48 55.75C49.2986 55.75 50.3872 55.3108 51.2657 54.4323C52.1441 53.5538 52.5834 52.4653 52.5834 51.1667V37.4167C52.5834 36.1181 52.1441 35.0295 51.2657 34.151C50.3872 33.2726 49.2986 32.8333 48 32.8333C46.7014 32.8333 45.6129 33.2726 44.7344 34.151C43.8559 35.0295 43.4167 36.1181 43.4167 37.4167V51.1667C43.4167 52.4653 43.8559 53.5538 44.7344 54.4323C45.6129 55.3108 46.7014 55.75 48 55.75Z" fill="#C90000"/>
</svg>
