<svg width="335" height="334" viewBox="0 0 335 334" fill="none" xmlns="http://www.w3.org/2000/svg">
<path d="M241.325 171.965L208.492 139.131H236.81L281.956 57.0479H126.408L93.575 24.2146H309.044C315.337 24.2146 320.193 26.8823 323.614 32.2177C327.034 37.5531 327.102 43.3674 323.819 49.6604L265.54 154.727C262.53 160.199 258.631 164.44 253.843 167.45C249.054 170.46 244.882 171.965 241.325 171.965ZM96.4479 319.715C87.4187 319.715 79.6892 316.5 73.2594 310.07C66.8295 303.64 63.6146 295.91 63.6146 286.881C63.6146 277.852 66.8295 270.123 73.2594 263.693C79.6892 257.263 87.4187 254.048 96.4479 254.048C105.477 254.048 113.207 257.263 119.636 263.693C126.066 270.123 129.281 277.852 129.281 286.881C129.281 295.91 126.066 303.64 119.636 310.07C113.207 316.5 105.477 319.715 96.4479 319.715ZM306.581 329.565L213.827 237.631H106.298C94.259 237.631 85.093 232.501 78.8 222.241C72.5069 211.98 72.0965 201.241 77.5687 190.023L94.8062 154.727L65.2562 88.2396L4.51458 27.4979C1.50486 24.4882 0 20.6576 0 16.0063C0 11.3549 1.50486 7.52431 4.51458 4.51458C7.5243 1.50486 11.3549 0 16.0062 0C20.6576 0 24.4882 1.50486 27.4979 4.51458L329.565 306.581C332.574 309.591 334.148 313.353 334.284 317.868C334.421 322.382 332.848 326.281 329.565 329.565C326.555 332.574 322.724 334.079 318.073 334.079C313.422 334.079 309.591 332.574 306.581 329.565ZM180.994 204.798L148.16 171.965H122.715L106.298 204.798H180.994ZM260.615 319.715C251.585 319.715 243.856 316.5 237.426 310.07C230.996 303.64 227.781 295.91 227.781 286.881C227.781 277.852 230.996 270.123 237.426 263.693C243.856 257.263 251.585 254.048 260.615 254.048C269.644 254.048 277.373 257.263 283.803 263.693C290.233 270.123 293.448 277.852 293.448 286.881C293.448 295.91 290.233 303.64 283.803 310.07C277.373 316.5 269.644 319.715 260.615 319.715Z" fill="white"/>
</svg>
