<svg width="65" height="65" viewBox="0 0 65 65" fill="none" xmlns="http://www.w3.org/2000/svg">
<g clip-path="url(#clip0_1031_121)">
<mask id="mask0_1031_121" style="mask-type:alpha" maskUnits="userSpaceOnUse" x="0" y="0" width="65" height="65">
<path d="M65 0H0V65H65V0Z" fill="#D9D9D9"/>
</mask>
<g mask="url(#mask0_1031_121)">
<path d="M41.4376 45.2292L45.2292 41.4375L35.2084 31.4167V18.9583H29.7917V33.5833L41.4376 45.2292ZM32.5001 59.5833C28.7536 59.5833 25.2327 58.8724 21.9376 57.4505C18.6424 56.0286 15.7761 54.0989 13.3386 51.6614C10.9011 49.2239 8.97144 46.3576 7.54956 43.0625C6.12769 39.7674 5.41675 36.2465 5.41675 32.5C5.41675 28.7535 6.12769 25.2326 7.54956 21.9375C8.97144 18.6424 10.9011 15.776 13.3386 13.3385C15.7761 10.901 18.6424 8.97131 21.9376 7.54944C25.2327 6.12756 28.7536 5.41663 32.5001 5.41663C36.2466 5.41663 39.7674 6.12756 43.0626 7.54944C46.3577 8.97131 49.224 10.901 51.6615 13.3385C54.099 15.776 56.0287 18.6424 57.4506 21.9375C58.8725 25.2326 59.5834 28.7535 59.5834 32.5C59.5834 36.2465 58.8725 39.7674 57.4506 43.0625C56.0287 46.3576 54.099 49.2239 51.6615 51.6614C49.224 54.0989 46.3577 56.0286 43.0626 57.4505C39.7674 58.8724 36.2466 59.5833 32.5001 59.5833ZM32.5001 54.1667C38.5036 54.1667 43.6155 52.0564 47.836 47.8359C52.0565 43.6154 54.1667 38.5035 54.1667 32.5C54.1667 26.4965 52.0565 21.3845 47.836 17.1641C43.6155 12.9436 38.5036 10.8333 32.5001 10.8333C26.4966 10.8333 21.3846 12.9436 17.1641 17.1641C12.9437 21.3845 10.8334 26.4965 10.8334 32.5C10.8334 38.5035 12.9437 43.6154 17.1641 47.8359C21.3846 52.0564 26.4966 54.1667 32.5001 54.1667Z" fill="white"/>
</g>
</g>
<defs>
<clipPath id="clip0_1031_121">
<rect width="65" height="65" fill="white"/>
</clipPath>
</defs>
</svg>
