<svg width="45" height="45" viewBox="0 0 45 45" fill="none" xmlns="http://www.w3.org/2000/svg">
<mask id="mask0_204_162" style="mask-type:alpha" maskUnits="userSpaceOnUse" x="0" y="0" width="45" height="45">
<rect width="45" height="45" fill="#D9D9D9"/>
</mask>
<g mask="url(#mask0_204_162)">
<path d="M17.625 30.9375L22.5 26.0625L27.375 30.9375L30 28.3125L25.125 23.4375L30 18.5625L27.375 15.9375L22.5 20.8125L17.625 15.9375L15 18.5625L19.875 23.4375L15 28.3125L17.625 30.9375ZM13.125 39.375C12.0938 39.375 11.2109 39.0078 10.4766 38.2734C9.74219 37.5391 9.375 36.6562 9.375 35.625V11.25H7.5V7.5H16.875V5.625H28.125V7.5H37.5V11.25H35.625V35.625C35.625 36.6562 35.2578 37.5391 34.5234 38.2734C33.7891 39.0078 32.9062 39.375 31.875 39.375H13.125ZM31.875 11.25H13.125V35.625H31.875V11.25Z" fill="#C90000"/>
</g>
</svg>
