<svg width="45" height="45" viewBox="0 0 45 45" fill="none" xmlns="http://www.w3.org/2000/svg">
<mask id="mask0_204_174" style="mask-type:alpha" maskUnits="userSpaceOnUse" x="0" y="0" width="45" height="45">
<rect width="45" height="45" fill="#D9D9D9"/>
</mask>
<g mask="url(#mask0_204_174)">
<path d="M9.375 35.625H12L28.1719 19.4531L25.5469 16.8281L9.375 33V35.625ZM36.1875 16.7344L28.2188 8.85938L30.8438 6.23438C31.5625 5.51562 32.4453 5.15625 33.4922 5.15625C34.5391 5.15625 35.4219 5.51562 36.1406 6.23438L38.7656 8.85938C39.4844 9.57812 39.8594 10.4453 39.8906 11.4609C39.9219 12.4766 39.5781 13.3438 38.8594 14.0625L36.1875 16.7344ZM33.4688 19.5L13.5938 39.375H5.625V31.4062L25.5 11.5312L33.4688 19.5Z" fill="white"/>
</g>
</svg>
