<svg width="524" height="467" viewBox="0 0 524 467" fill="none" xmlns="http://www.w3.org/2000/svg">
<path d="M96.5 334.8C85.9 334.3 77.6 329.1 69.3 323.8C56.4 315.6 48 303.4 41.7 289.9C38.4 282.6 36.6 274.4 35.2 266.4C33.8 258.7 33.1 250.7 33.1 242.9C33.3 221 37 199.6 43.2 178.6C52.1 148.4 63.7 119.2 78 91.2C83.1 81.2 85.8 70.6 85.8 59.6C85.8 52.9 83.9 46.2 82.8 39.4C82.4 37.1 82.1 34.7 81.5 30.6C90.5 35 98.7 38.1 105.9 42.6C119.8 51.4 134 60 146.5 70.6C160.4 82.3 173.2 95.5 185.2 109.1C194.1 119.2 201.8 130.7 208.5 142.4C215.6 155.1 221.1 168.9 222.8 183.5C224.3 196.6 225.5 209.9 224.6 223C223.9 234.4 220.5 245.7 217.4 256.9C213.3 272.2 205.1 285.5 195.5 297.9C185.7 310.6 173.5 320.8 159.8 328.9C150.3 334.5 140.2 339 129 344.6C129.4 339.8 129.7 336.8 130 333.7C132 316.6 133.8 299.4 136 282.2C139.9 252.1 139.7 221.8 138.7 191.5C138.1 169.4 135.5 147.1 127.9 126C125 118.1 120.8 110.6 116.9 103C116.2 101.6 114.4 100.6 113.1 99.4C112.7 99.6667 112.3 99.9333 111.9 100.2C112.7 105.6 113.4 111 114.2 116.4C115.4 124.8 117.4 133.1 117.9 141.4C119.2 163.7 120.9 185.9 120.7 208.2C120.5 225.3 117.8 242.3 116 259.4C113.8 280.2 108.4 300.2 102 320C100.4 324.9 98.6 329.7 96.5 334.8Z" fill="#509D45"/>
<path d="M437.9 80C422.8 79.3 408.1 78 393.5 78.2C372.1 78.4 352.1 83.9 333.8 95.5C316.4 106.6 298.9 117.5 280.9 127.3C268.7 133.9 255.5 138.7 241.1 138C239.3 137.9 237.5 137.5 235.9 137C231.2 135.4 230.8 133.7 234.3 130.2C246.9 117.6 261.6 107.9 276.9 98.9C295.9 87.7 315.8 78.9 336.8 72.8C349.9 69 363.5 66.8 376.9 64C394.8 60.2 413 60.3 431.1 61.2C445 61.9 459 64.1 472.7 66.5C483.2 68.3 493.4 71.3 503.6 74C508.9 75.4 509.3 77.3 505.9 81.6C497.6 92.2 489.1 102.7 481.1 113.5C468.2 131 456.6 149.5 447.5 169.3C439.6 186.2 433.3 203.5 430.8 222.4C427.5 246.2 417.5 267.7 402.1 286.3C395.3 294.5 388 302.4 380.4 310C369.4 320.8 356.5 329.4 343.1 337C326.2 346.5 308.3 353.4 289.3 357.3C272.5 360.8 255.7 361.7 238.5 360.3C229.2 359.6 219.5 361 210.3 363.2C194 367.1 177.7 371.7 161.8 377.2C149.6 381.5 138.2 387.8 126.3 392.9C112.8 398.7 100.9 407 89.8 416.2C80 424.4 70.6 433.3 64.1 444.7C63.8 445.2 63.5 445.6 62.5 447.3C62.5 431.1 62.5 416.3 62.5 401.5C86.5 389.8 111 378.3 134.9 365.9C153.2 356.3 171 345.5 188.8 334.9C193.4 332.1 197.5 328.2 201 324.1C203 322 202.8 318.1 204.3 315.4C211.3 303.1 217.8 290.4 225.9 278.9C237.2 262.7 249.5 247.1 262 231.7C269.1 222.9 276.7 214.3 285.1 206.7C296.9 195.8 309.5 185.9 321.8 175.7C339.5 161 359.6 150.1 379.9 139.6C383.5 137.8 387.5 136.7 391.2 135.3C391.4 135.767 391.6 136.2 391.8 136.6C384.1 143.9 376.5 151.3 368.7 158.6C361.7 165.3 354.3 171.6 347.3 178.3C337.4 188 327.4 197.7 317.9 207.7C303.2 223.1 288.3 238.3 274.5 254.3C261.5 269.3 249.5 285.2 237.7 301C233.1 307.2 229.8 314.3 226.4 321.2C223.7 326.8 225.2 330.8 230.2 335.1C236.7 340.6 244.2 340.7 252 339.5C252.9 339.4 253.9 338.9 254.8 339C279.6 341.8 301.5 332.5 322.6 321.6C348.6 308.3 369.3 288.9 384.9 264.2C395.2 248.1 401.6 230.5 406.3 211.9C410 197.2 415.3 182.8 421 168.7C426.6 154.8 432.9 141 440.2 127.8C446.4 116.7 454.2 106.5 461.5 96.1C463.8 92.8 463.8 88.5 459.8 86.6C454.9 84.1 449.4 82.7 444.1 81C442.3 80.5 440.3 80.3 437.9 80Z" fill="#509D45"/>
</svg>
