<svg width="45" height="45" viewBox="0 0 45 45" fill="none" xmlns="http://www.w3.org/2000/svg">
<mask id="mask0_379_96" style="mask-type:alpha" maskUnits="userSpaceOnUse" x="0" y="0" width="45" height="45">
<rect width="45" height="45" fill="#D9D9D9"/>
</mask>
<g mask="url(#mask0_379_96)">
<path d="M15 31.875C15.5312 31.875 15.9766 31.6953 16.3359 31.3359C16.6953 30.9766 16.875 30.5312 16.875 30C16.875 29.4688 16.6953 29.0234 16.3359 28.6641C15.9766 28.3047 15.5312 28.125 15 28.125C14.4688 28.125 14.0234 28.3047 13.6641 28.6641C13.3047 29.0234 13.125 29.4688 13.125 30C13.125 30.5312 13.3047 30.9766 13.6641 31.3359C14.0234 31.6953 14.4688 31.875 15 31.875ZM15 24.375C15.5312 24.375 15.9766 24.1953 16.3359 23.8359C16.6953 23.4766 16.875 23.0312 16.875 22.5C16.875 21.9688 16.6953 21.5234 16.3359 21.1641C15.9766 20.8047 15.5312 20.625 15 20.625C14.4688 20.625 14.0234 20.8047 13.6641 21.1641C13.3047 21.5234 13.125 21.9688 13.125 22.5C13.125 23.0312 13.3047 23.4766 13.6641 23.8359C14.0234 24.1953 14.4688 24.375 15 24.375ZM15 16.875C15.5312 16.875 15.9766 16.6953 16.3359 16.3359C16.6953 15.9766 16.875 15.5312 16.875 15C16.875 14.4688 16.6953 14.0234 16.3359 13.6641C15.9766 13.3047 15.5312 13.125 15 13.125C14.4688 13.125 14.0234 13.3047 13.6641 13.6641C13.3047 14.0234 13.125 14.4688 13.125 15C13.125 15.5312 13.3047 15.9766 13.6641 16.3359C14.0234 16.6953 14.4688 16.875 15 16.875ZM20.625 31.875H31.875V28.125H20.625V31.875ZM20.625 24.375H31.875V20.625H20.625V24.375ZM20.625 16.875H31.875V13.125H20.625V16.875ZM9.375 39.375C8.34375 39.375 7.46094 39.0078 6.72656 38.2734C5.99219 37.5391 5.625 36.6562 5.625 35.625V9.375C5.625 8.34375 5.99219 7.46094 6.72656 6.72656C7.46094 5.99219 8.34375 5.625 9.375 5.625H35.625C36.6562 5.625 37.5391 5.99219 38.2734 6.72656C39.0078 7.46094 39.375 8.34375 39.375 9.375V35.625C39.375 36.6562 39.0078 37.5391 38.2734 38.2734C37.5391 39.0078 36.6562 39.375 35.625 39.375H9.375ZM9.375 35.625H35.625V9.375H9.375V35.625Z" fill="white"/>
</g>
</svg>
