<svg width="35" height="35" viewBox="0 0 35 35" fill="none" xmlns="http://www.w3.org/2000/svg">
<path d="M10 26.875C10.5312 26.875 10.9766 26.6953 11.3359 26.3359C11.6953 25.9766 11.875 25.5312 11.875 25C11.875 24.4688 11.6953 24.0234 11.3359 23.6641C10.9766 23.3047 10.5312 23.125 10 23.125C9.46875 23.125 9.02344 23.3047 8.66406 23.6641C8.30469 24.0234 8.125 24.4688 8.125 25C8.125 25.5312 8.30469 25.9766 8.66406 26.3359C9.02344 26.6953 9.46875 26.875 10 26.875ZM10 19.375C10.5312 19.375 10.9766 19.1953 11.3359 18.8359C11.6953 18.4766 11.875 18.0312 11.875 17.5C11.875 16.9688 11.6953 16.5234 11.3359 16.1641C10.9766 15.8047 10.5312 15.625 10 15.625C9.46875 15.625 9.02344 15.8047 8.66406 16.1641C8.30469 16.5234 8.125 16.9688 8.125 17.5C8.125 18.0312 8.30469 18.4766 8.66406 18.8359C9.02344 19.1953 9.46875 19.375 10 19.375ZM10 11.875C10.5312 11.875 10.9766 11.6953 11.3359 11.3359C11.6953 10.9766 11.875 10.5312 11.875 10C11.875 9.46875 11.6953 9.02344 11.3359 8.66406C10.9766 8.30469 10.5312 8.125 10 8.125C9.46875 8.125 9.02344 8.30469 8.66406 8.66406C8.30469 9.02344 8.125 9.46875 8.125 10C8.125 10.5312 8.30469 10.9766 8.66406 11.3359C9.02344 11.6953 9.46875 11.875 10 11.875ZM15.625 26.875H26.875V23.125H15.625V26.875ZM15.625 19.375H26.875V15.625H15.625V19.375ZM15.625 11.875H26.875V8.125H15.625V11.875ZM4.375 34.375C3.34375 34.375 2.46094 34.0078 1.72656 33.2734C0.992188 32.5391 0.625 31.6562 0.625 30.625V4.375C0.625 3.34375 0.992188 2.46094 1.72656 1.72656C2.46094 0.992188 3.34375 0.625 4.375 0.625H30.625C31.6562 0.625 32.5391 0.992188 33.2734 1.72656C34.0078 2.46094 34.375 3.34375 34.375 4.375V30.625C34.375 31.6562 34.0078 32.5391 33.2734 33.2734C32.5391 34.0078 31.6562 34.375 30.625 34.375H4.375ZM4.375 30.625H30.625V4.375H4.375V30.625Z" fill="white"/>
</svg>
