<svg width="23" height="23" viewBox="0 0 23 23" fill="none" xmlns="http://www.w3.org/2000/svg">
<path d="M21.25 23L13.375 15.125C12.75 15.625 12.0312 16.0208 11.2188 16.3125C10.4062 16.6042 9.54167 16.75 8.625 16.75C6.35417 16.75 4.43229 15.9635 2.85938 14.3906C1.28646 12.8177 0.5 10.8958 0.5 8.625C0.5 6.35417 1.28646 4.43229 2.85938 2.85938C4.43229 1.28646 6.35417 0.5 8.625 0.5C10.8958 0.5 12.8177 1.28646 14.3906 2.85938C15.9635 4.43229 16.75 6.35417 16.75 8.625C16.75 9.54167 16.6042 10.4062 16.3125 11.2188C16.0208 12.0312 15.625 12.75 15.125 13.375L23 21.25L21.25 23ZM8.625 14.25C10.1875 14.25 11.5156 13.7031 12.6094 12.6094C13.7031 11.5156 14.25 10.1875 14.25 8.625C14.25 7.0625 13.7031 5.73438 12.6094 4.64062C11.5156 3.54688 10.1875 3 8.625 3C7.0625 3 5.73438 3.54688 4.64062 4.64062C3.54688 5.73438 3 7.0625 3 8.625C3 10.1875 3.54688 11.5156 4.64062 12.6094C5.73438 13.7031 7.0625 14.25 8.625 14.25Z" fill="#509D46"/>
</svg>
